<svg id="_x30_1_Parrot" enable-background="new 0 0 64 64" height="512" viewBox="0 0 64 64" width="512" xmlns="http://www.w3.org/2000/svg"><path d="m50 38c2 1 5 2 6 0s-1-3-1-3 1-2 0-3c-2-2-4.26 1.48-6 2-.8.24-2.56.52-3.97.72l.26-2.01 7.71-7.71c.35-.35 1 3 1 3s8-3 8-2-2 5-3 6l3 1c0 8-29 26-37 29h-23v-16h.01c.1 4.9 3.15 8.41 5.59 10 5.79 3.8 13.85 2.04 17.17-4 1.93-3.48 1.51-7.85-.7-11 .67.01 5.93.13 5.93 2v4s0 5 3 5c2 0 2-2 2-2s3 .24 3-2c0-2-3-3-3-3s0-4.51-.65-7.01c.85-.03 3.06-.2 4.65-.99l.16.01c-.01.17-.01.33-.02.49-.06 1.28 1.09 2.28 2.35 2.05z" fill="#d3a06c"/><path d="m3 32c2-11 13.25-18.03 25-18 .79 5.55 5.36 7.33 9.21 7.33l.79 2.67c.57.57.89 2.09 1.06 3.99l-.06.01s-1-1-4 1c-2.49 1.66-5.67 4.7-6.68 5.69 2.46.5 5.16 1.27 5.68 2.31.13.27.25.6.35.99.65 2.5.65 7.01.65 7.01s3 1 3 3c0 2.24-3 2-3 2s0 2-2 2c-3 0-3-3-3-5s0-3 0-4c0-1.87-5.26-1.99-5.93-2 2.21 3.15 2.63 7.52.7 11-3.32 6.04-11.38 7.8-17.17 4-2.44-1.59-5.49-5.1-5.59-10-.03-1.24.13-2.58.54-4 .02-.08.05-.16.08-.25-.47-2.68-.03-7.54.37-9.75z" fill="#b4dd7f"/><path d="m45.29 32.71-.26 2.01c1.41-.2 3.17-.48 3.97-.72 1.74-.52 4-4 6-2 1 1 0 3 0 3s2 1 1 3-4 1-6 0l-8.51 1.55c-1.26.23-2.41-.77-2.35-2.05.01-.16.01-.32.02-.49.1-2.53.17-6.19-.1-9.02-.17-1.9-.49-3.42-1.06-3.99l-.79-2.67c1 0 1.96-.12 2.79-.33 3.47-.87 13.64-10.62 15.02-13.97.2.33 1.86 3.26-.02 7.97-2 5-9 12-9 12z" fill="#b4dd7f"/><path d="m55 6c.24.16.23.52.02 1.03-1.38 3.35-11.55 13.1-15.02 13.97-.83.21-1.79.33-2.79.33-3.85 0-8.42-1.78-9.21-7.33 0 0-6-7-5-9 .89-1.77 10.42-1.19 12.57-1.03-.98 1.06-1.57 2.47-1.57 4.03 0 3.31 2.69 6 6 6s6-2.69 6-6c0-1.54-.57-2.94-1.53-3.99 1.76.03 7.97.28 10.53 1.99z" fill="#a0d468"/><path d="m44.47 4.01c.96 1.05 1.53 2.45 1.53 3.99 0 3.31-2.69 6-6 6s-6-2.69-6-6c0-1.56.59-2.97 1.57-4.03 1.09-1.21 2.67-1.97 4.43-1.97 1.78 0 3.38.78 4.47 2.01z" fill="#fcd770"/><path d="m63 26c0-.385-.183-.731-.501-.952-.375-.261-1.132-.79-7.759 1.613-.551-2.389-.967-2.517-1.371-2.64l-.651-.154-6.078 6.079.311-2.485c1.286-1.316 7.116-7.436 8.979-12.09 1.722-4.306.711-7.303.172-8.43.018-.066.04-.135.05-.197.165-.953-.362-1.42-.597-1.576-2.616-1.745-8.401-2.085-10.648-2.152-1.264-1.245-2.997-2.016-4.907-2.016-1.866 0-3.56.739-4.816 1.933-4.795-.354-12.014-.509-13.079 1.62-.951 1.902 1.753 5.883 3.839 8.522-12.142.756-22.045 8.39-23.929 18.746-.427 2.351-.834 7.015-.408 9.844-.005.018-.012.038-.017.055-.437 1.508-.605 2.935-.581 4.28h-.009v17h24.182l.17-.063c7.619-2.858 37.648-21.036 37.648-29.937v-.721l-2.379-.793c1.098-1.723 2.379-4.461 2.379-5.486zm-23-23c2.757 0 5 2.243 5 5s-2.243 5-5 5-5-2.243-5-5 2.243-5 5-5zm-16.138 2.497c.635-.66 4.939-.918 9.896-.649-.481.949-.758 2.018-.758 3.152 0 3.859 3.141 7 7 7s7-3.141 7-7c0-1.041-.235-2.026-.644-2.915 2.54.161 5.985.584 7.769 1.554-.872 2.529-11.08 12.568-14.367 13.391-2.048.51-5.315.518-7.795-1.149-1.655-1.113-2.656-2.803-2.973-5.022l-.041-.288-.19-.221c-2.832-3.305-5.15-7.076-4.897-7.853zm-19.879 26.682c1.775-9.758 11.466-16.86 23.2-17.151.532 2.349 1.781 4.247 3.664 5.513 1.957 1.316 4.294 1.783 6.361 1.783 1.126 0 2.172-.139 3.033-.354 3.151-.787 11.261-8.127 14.532-12.639.216 1.211.214 3.005-.703 5.298-1.899 4.75-8.71 11.596-8.778 11.664l-.243.242-.714 5.715-.043.043.033.033-.189 1.515c-.509.07-.954.128-1.261.167l.248 1.984c.189-.023 4.664-.584 6.163-1.034.748-.225 1.438-.762 2.17-1.331 1.696-1.32 2.253-1.503 2.836-.92.336.337.038 1.388-.188 1.846l-.447.895.895.447c.26.13 1.065.633.553 1.658-.107.215-.355.719-1.62.578-1.049-.116-2.231-.622-3.038-1.025l-.298-.149-8.835 1.607c-.306.055-.609-.028-.841-.23-.134-.116-.355-.374-.337-.789.544-12.277-.941-13.763-1.43-14.251l-1.414 1.414c.197.197.431.827.618 2.053-.825.053-1.958.402-3.466 1.407-2.308 1.539-5.125 4.163-6.43 5.419-1.503-.285-2.931-.472-3.905-.581l-.221 1.988c4.496.5 8.803 1.646 9.216 2.453.653 1.302.896 5.324.896 7.553v.721l.684.228c.489.162 2.316.989 2.316 2.051 0 .344-.116.496-.218.591-.433.402-1.395.434-1.704.412l-1.052-.069-.026 1.054c-.012.462-.194 1.012-1 1.012-1.701 0-2-1.29-2-4v-4c0-2.481-4.104-2.933-6.411-2.991-.915-1.187-2.054-2.173-3.379-2.889-4.502-2.431-10.092-.907-12.464 3.397-.879 1.597-1.055 3.526-.494 5.434.624 2.122 2.055 3.918 3.925 4.929 1.51.814 3.317.986 4.963.47 1.542-.484 2.777-1.514 3.477-2.898 1.157-2.29.231-4.745-1.199-6.162-1.131-1.12-2.692-1.421-4.175-.802-1.52.634-2.58 2.078-2.58 3.513h2c0-.619.593-1.351 1.35-1.667.52-.214 1.287-.327 1.998.378.684.677 1.626 2.246.821 3.838-.454.899-1.268 1.571-2.29 1.893-1.134.354-2.379.239-3.413-.321-1.384-.748-2.489-2.144-2.957-3.732-.409-1.393-.293-2.779.327-3.905 1.812-3.291 6.283-4.481 9.761-2.603 2.089 1.128 3.63 3.08 4.341 5.496.715 2.432.459 5.034-.701 7.142-1.422 2.583-3.835 4.411-6.795 5.146-3.069.762-6.334.217-8.954-1.5-.721-.473-6.974-4.849-4.639-12.885 1.005-3.46 2.812-8.639 6.887-13.648l-1.551-1.262c-2.48 3.048-4.144 6.133-5.325 8.903.1-1.561.273-3.065.46-4.095zm31.08 4.763c-.053-.139-.109-.27-.169-.389-.543-1.086-2.415-1.874-4.525-2.437 1.415-1.316 3.479-3.146 5.186-4.284 1.404-.935 2.198-1.078 2.571-1.075.128 1.775.173 4.228.058 7.514-1.019.416-2.256.595-3.121.671zm25.856-3.249c-1.624 7.304-27.139 23.859-36.103 27.307h-21.816v-8.327c1.118 1.78 2.576 3.195 4.054 4.163 2.171 1.424 4.718 2.165 7.295 2.165 1.082 0 2.17-.131 3.237-.396 3.507-.872 6.37-3.046 8.064-6.123 1.416-2.571 1.732-5.731.868-8.671-.176-.596-.404-1.163-.661-1.71 1.684.181 2.984.572 3.143.899v4c0 1.947 0 6 4 6 1.65 0 2.513-1.009 2.841-2.021.687-.069 1.615-.287 2.297-.917.564-.522.862-1.235.862-2.062 0-2.019-1.928-3.184-3.007-3.678-.021-1.16-.106-3.48-.436-5.418.782-.084 1.76-.243 2.698-.538.152.563.451 1.079.903 1.474.554.482 1.249.74 1.969.74.181 0 .363-.017.545-.05l8.185-1.487c3.464 1.648 6.021 1.44 7.038-.596.828-1.656.191-3.017-.681-3.811.28-.902.493-2.344-.507-3.344-1.972-1.973-4.167-.266-5.479.756-.554.431-1.127.876-1.517.993-.5.15-1.482.329-2.521.494l.045-.358 6.456-6.456c.112.442.229.963.327 1.467l.224 1.163 1.109-.416c2.271-.853 4.954-1.718 6.374-2.025-.547 1.39-1.775 3.725-2.433 4.382l-1.145 1.145z"/><path d="m23.318 17.948-.636-1.896c-.255.085-6.301 2.152-10.462 7.321l1.559 1.254c3.783-4.699 9.483-6.66 9.539-6.679z"/><path d="m40 11c1.654 0 3-1.346 3-3h-2c0 .552-.448 1-1 1s-1-.448-1-1h-2c0 1.654 1.346 3 3 3z"/></svg>